<svg xmlns="http://www.w3.org/2000/svg" viewBox="0 0 64 64" width="64" height="64">
  <circle cx="32" cy="32" r="30" fill="#21759b"/>
  <path fill="#ffffff" d="M32 14c-9.94 0-18 8.06-18 18s8.06 18 18 18 18-8.06 18-18-8.06-18-18-18zm0 4c3.2 0 6.14 1.1 8.47 2.94-.2-.02-.4-.03-.6-.03-1.1 0-1.9.96-1.9 1.99 0 .93.54 1.72 1.1 2.65.43.75.93 1.72.93 3.12 0 .96-.37 2.08-.86 3.64l-1.13 3.77-4.08-12.14c.68-.04 1.29-.11 1.29-.11.6-.07.53-.96-.07-.92 0 0-1.83.14-3.01.14-1.1 0-2.97-.14-2.97-.14-.6-.04-.68.89-.07.92 0 0 .57.07 1.19.11l1.77 4.85-2.49 7.46-4.14-12.31c.68-.04 1.29-.11 1.29-.11.6-.07.53-.96-.07-.92 0 0-1.83.14-3.01.14-.21 0-.46-.01-.72-.02A13.94 13.94 0 0 1 32 18zM18.6 26.3l5.35 14.66c.02.06.05.12.08.17L20.2 43A13.94 13.94 0 0 1 18 32c0-1.98.41-3.86 1.14-5.57zm23.2 1.06c.05.35.08.72.08 1.13 0 1.11-.21 2.36-.83 3.93l-3.35 9.7-3.26-9.71 2.94-8.5c.61.29 1.16.68 1.62 1.15-.02.79.32 1.72.68 2.31zm-8.9 8.4l3.03 8.3c.02.05.05.1.07.14-1.02.36-2.11.55-3.25.55-.96 0-1.89-.14-2.77-.4l2.92-8.59zm11.2-4.83A13.94 13.94 0 0 1 46 32c0 4.83-2.44 9.09-6.15 11.6l3.75-10.85c.35-.88.7-1.98.9-2.82z"/>
  <g fill="#ffcf4a">
    <path d="M45 8l4 4-4 4v-2.6c-3 0-5.4 2.4-5.4 5.4h-2.6C37 13.9 40.6 10.6 45 10.6V8z"/>
    <path d="M19 56l-4-4 4-4v2.6c3 0 5.4-2.4 5.4-5.4h2.6C27 50.1 23.4 53.4 19 53.4V56z"/>
  </g>
</svg>
