<svg xmlns="http://www.w3.org/2000/svg" viewBox="0 0 64 64" width="64" height="64">
  <circle cx="32" cy="32" r="30" fill="#f38020"/>
  <path fill="#ffffff" d="M44.5 38.5c.3-1 .2-2-.3-2.7-.5-.7-1.3-1.1-2.3-1.2l-18.6-.2c-.12 0-.22-.06-.28-.15a.35.35 0 0 1-.04-.32c.06-.18.24-.31.43-.32l18.77-.24c2.23-.1 4.64-1.91 5.48-4.11l1.07-2.8c.05-.12.06-.24.03-.36A12.25 12.25 0 0 0 25.2 24.1a5.5 5.5 0 0 0-8.65 5.73 5.24 5.24 0 0 0-5.05 5.24c0 .47.03.94.1 1.4.03.22.22.38.44.38h34.33c.25 0 .48-.16.55-.4l.13-.45z"/>
  <path fill="#ffd966" d="M50.4 26.9c-.17 0-.35 0-.52.02-.12 0-.23.1-.27.22l-.73 2.52c-.31 1.08-.19 2.08.33 2.8.47.68 1.27 1.08 2.24 1.13l3.9.24c.11 0 .21.06.27.15.06.1.07.22.03.33-.06.18-.24.3-.43.31l-4.06.24c-2.2.1-4.58 1.88-5.41 4.05l-.3.76c-.05.15.06.3.22.3h13.96c.17 0 .31-.11.36-.27.24-.86.37-1.77.37-2.71 0-5.53-4.48-10-9.96-10z"/>
</svg>
